<svg id="Icons" height="512" viewBox="0 0 74 74" width="512" xmlns="http://www.w3.org/2000/svg"><path d="m65.35 19.66h-56.7a2.31 2.31 0 0 1 -2.31-2.31v-5.52a2.32 2.32 0 0 1 2.31-2.31h56.7a2.32 2.32 0 0 1 2.31 2.31v5.52a2.31 2.31 0 0 1 -2.31 2.31zm-56.7-8.14a.31.31 0 0 0 -.31.31v5.52a.31.31 0 0 0 .31.31h56.7a.31.31 0 0 0 .31-.31v-5.52a.31.31 0 0 0 -.31-.31z"/><path d="m46.45 11.52h-18.9a1 1 0 0 1 -1-1v-5.19a3.33 3.33 0 0 1 3.33-3.33h14.24a3.33 3.33 0 0 1 3.33 3.33v5.19a1 1 0 0 1 -1 1zm-17.9-2h16.9v-4.19a1.32 1.32 0 0 0 -1.33-1.33h-14.24a1.32 1.32 0 0 0 -1.33 1.33z"/><path d="m54.94 72h-37a3 3 0 0 1 -3-2.8l-3.36-50.47a1 1 0 0 1 .27-.75 1 1 0 0 1 .73-.32h48.84a1 1 0 0 1 1 1.09l-4.49 50.52a3 3 0 0 1 -2.99 2.73zm-41.29-52.34 3.29 49.41a1 1 0 0 0 1 .93h37a1 1 0 0 0 1-.91l4.39-49.43z"/><path d="m47 58h-.08a1 1 0 0 1 -.92-1.08l2-24.34a1 1 0 0 1 2 .16l-2 24.34a1 1 0 0 1 -1 .92z"/><path d="m37 58a1 1 0 0 1 -1-1v-24.34a1 1 0 0 1 2 0v24.34a1 1 0 0 1 -1 1z"/><path d="m27 58a1 1 0 0 1 -1-.92l-2-24.34a1 1 0 0 1 .92-1.07 1 1 0 0 1 1.08.91l2 24.34a1 1 0 0 1 -.92 1.08z"/></svg>